{"title":"Scream Queens 2015 S02E01 Scream Again 720p WEB-DL HEVC 2CH x265","uid":15875331,"size":329629549,"categoryP":"video","categoryS":"hd___tv_shows","magnet":"?xt=urn:btih:1f9c4c4f5c49639a06b6b915b21aa822d4360dc8&amp;dn=Scream+Queens+2015+S02E01+Scream+Again+720p+WEB-DL+HEVC+2CH+x265&amp;tr=udp%3A%2F%2Ftracker.leechers-paradise.org%3A6969&amp;tr=udp%3A%2F%2Fzer0day.ch%3A1337&amp;tr=udp%3A%2F%2Fopen.demonii.com%3A1337&amp;tr=udp%3A%2F%2Ftracker.coppersurfer.tk%3A6969&amp;tr=udp%3A%2F%2Fexodus.desync.com%3A6969","seeders":5,"leechers":2,"uploader":"nayhtut","files":1,"time":1474496472,"description":"[Screenshots Gallery Link]\r\n\r\n[http://postimg.org/gallery/lg1ri0ue]\r\n\r\nSource:Scream Queens 2015 S02E01 Scream Again 1080p WEB-DL DD51 H264-NTb(1.66GB)\r\n\r\n \r\nComplete name:Scream.Queens.2015.S02E01.Scream.Again.720p.WEB-DL.HEVC.2CH.x265.mkv\r\nFormat                                   : Matroska\r\nFormat version                           : Version 4 / Version 2\r\nFile size                                : 314 MiB\r\nDuration                                 : 42mn 43s\r\nOverall bit rate                         : 1 029 Kbps\r\nWriting application                      : Lavf57.25.100\r\nWriting library                          : Lavf57.25.100\r\n\r\nVideo\r\n\r\nID                                       : 1\r\nFormat                                   : V_MPEGH/ISO/HEVC\r\nCodec ID                                 : V_MPEGH/ISO/HEVC\r\nDuration                                 : 42mn 43s\r\nBit rate                                 : 816 Kbps\r\nWidth                                    : 1 274 pixels\r\nHeight                                   : 720 pixels\r\nDisplay aspect ratio                     : 16:9\r\nFrame rate                               : 25.000 fps\r\nBits/(Pixel*Frame)                       : 0.036\r\nStream size                              : 249 MiB (79%)\r\nWriting library                          : Lavc57.48.101 libx265\r\nLanguage                                 : English\r\nDefault                                  : Yes\r\nForced                                   : No\r\nDURATION                                 : 00:42:43.651000000\r\n\r\nAudio\r\n\r\nID                                       : 2\r\nFormat                                   : AC-3\r\nFormat/Info                              : Audio Coding 3\r\nMode extension                           : CM (complete main)\r\nFormat settings, Endianness              : Big\r\nCodec ID                                 : A_AC3\r\nDuration                                 : 42mn 43s\r\nBit rate mode                            : Constant\r\nBit rate                                 : 192 Kbps\r\nChannel(s)                               : 2 channels\r\nChannel positions                        : Front: L R\r\nSampling rate                            : 48.0 KHz\r\nBit depth                                : 16 bits\r\nCompression mode                         : Lossy\r\nStream size                              : 58.7 MiB (19%)\r\nWriting library                          : Lavc57.24.102 ac3\r\nLanguage                                 : English\r\nDefault                                  : Yes\r\nForced                                   : No\r\nDURATION                                 : 00:42:43.679000000\r\n\r\nText\r\n\r\nID                                       : 3\r\nFormat                                   : ASS\r\nCodec ID                                 : S_TEXT/ASS\r\nCodec ID/Info                            : Advanced Sub Station Alpha\r\nLanguage                                 : English","torrent":{"xt":"urn:btih:1f9c4c4f5c49639a06b6b915b21aa822d4360dc8","amp;dn":"Scream+Queens+2015+S02E01+Scream+Again+720p+WEB-DL+HEVC+2CH+x265","amp;tr":["udp%3A%2F%2Ftracker.leechers-paradise.org%3A6969","udp%3A%2F%2Fzer0day.ch%3A1337","udp%3A%2F%2Fopen.demonii.com%3A1337","udp%3A%2F%2Ftracker.coppersurfer.tk%3A6969","udp%3A%2F%2Fexodus.desync.com%3A6969"],"infoHash":"1f9c4c4f5c49639a06b6b915b21aa822d4360dc8","infoHashBuffer":{"type":"Buffer","data":[31,156,76,79,92,73,99,154,6,182,185,21,178,26,168,34,212,54,13,200]},"announce":[],"urlList":[]}}